<?xml version="1.0" encoding="UTF-8"?>
<!DOCTYPE svg PUBLIC "-//W3C//DTD SVG 1.1//EN" "http://www.w3.org/Graphics/SVG/1.1/DTD/svg11.dtd">
<!-- Creator: CorelDRAW 2020 (64-Bit) -->
<svg xmlns="http://www.w3.org/2000/svg" xml:space="preserve" width="24px" height="24px" version="1.1" style="shape-rendering:geometricPrecision; text-rendering:geometricPrecision; image-rendering:optimizeQuality; fill-rule:evenodd; clip-rule:evenodd"
viewBox="0 0 0.16 0.16"
 xmlns:xlink="http://www.w3.org/1999/xlink"
 xmlns:xodm="http://www.corel.com/coreldraw/odm/2003">
 <defs>
  <style type="text/css">
   <![CDATA[
    .fil0 {fill:none}
    .fil1 {fill:white}
   ]]>
  </style>
   <clipPath id="id0">
    <path d="M0 0l0.16 0 0 0.16 -0.16 0 0 -0.16z"/>
   </clipPath>
 </defs>
 <g id="Capa_x0020_1">
  <metadata id="CorelCorpID_0Corel-Layer"/>
  <g>
  </g>
  <g style="clip-path:url(#id0)">
   <g>
    <polyline class="fil0" points="0.03,0.11 0.03,0.13 0.05,0.12 "/>
    <polyline class="fil0" points="0.02,0.11 0.01,0.15 0.05,0.14 "/>
    <path class="fil1" d="M0.02 0.11l-0.01 0.04 0.04 -0.01c0.01,0 0.02,0.01 0.03,0.01 0.04,0 0.07,-0.03 0.07,-0.07 0,-0.04 -0.03,-0.07 -0.07,-0.07 -0.04,0 -0.07,0.03 -0.07,0.07 0,0.01 0,0.02 0.01,0.03zm0.01 0.02l0 -0.02c0,-0.01 -0.01,-0.02 -0.01,-0.03 0,-0.03 0.03,-0.06 0.06,-0.06 0.03,0 0.06,0.03 0.06,0.06 0,0.03 -0.03,0.05 -0.06,0.05 -0.01,0 -0.02,0 -0.03,-0.01l-0.02 0.01z"/>
    <path class="fil1" d="M0.1 0.11c0.01,0 0.02,0 0.02,-0.02 0,0 -0.01,0 -0.01,0 0,0 -0.01,0 -0.01,0 0,0 0,0 0,0 -0.01,0 -0.01,0 -0.01,0 0,0 0,0 0,0 -0.01,0 -0.01,0 -0.02,0 0,-0.01 -0.01,-0.01 -0.01,-0.02 0,0 0,0 0,0 0,0 0.01,0 0.01,-0.01 0,0 0,0 0,0 0,0 -0.01,-0.01 -0.01,-0.01 0,-0.01 0,-0.01 0,-0.01 -0.01,0 -0.02,0.02 -0.02,0.03 0.01,0.01 0.04,0.04 0.06,0.04z"/>
   </g>
  </g>
  <polygon class="fil0" points="0,0 0.16,0 0.16,0.16 0,0.16 "/>
 </g>
</svg>
